<?xml version="1.0" encoding="UTF-8"?>
<svg xmlns="http://www.w3.org/2000/svg" version="1.1" viewBox="0 0 512 512">
  <defs>
    <style>
      .st0 {
      fill: #fbae17;
      }

      .st1 {
      fill: none;
      }

      .st1, .st2 {
      stroke: #7b8299;
      stroke-linecap: round;
      stroke-linejoin: round;
      stroke-width: 16.86px;
      }

      .st2 {
      fill: #969eaf;
      }

      .st3 {
      fill: #727b93;
      }

      .st4 {
      fill: #caced9;
      }
    </style>
  </defs>
  <g>
    <g>
      <path class="st3"
        d="M197.41,86.92l.72,284.55c-17.12.22-46.57-1.97-60,8.62-4.68,3.69-6.65,8.14-9.7,12.93-4.49-91.73,3.36-187.06,0-279.16,8.81-33.1,42.38-26.56,68.98-26.95Z" />
      <path class="st4"
        d="M198.13,371.47c61.92-.81,124.14,2.1,186.11.72-.03,5.79,2.33,51.26-.36,52.46h-226.35c-20.55-4.41-28.07-10.55-29.1-31.62,3.05-4.8,5.02-9.24,9.7-12.93,13.43-10.59,42.88-8.4,60-8.62Z" />
      <g>
        <path class="st0"
          d="M384.24,372.19c-61.97,1.39-124.19-1.53-186.11-.72l-.72-284.55c62.47-.9,125.07.37,187.55.36.37,94.97-.18,189.97-.72,284.91Z" />
        <path class="st2"
          d="M252.24,190.93c.26-.04.52-.07.78-.11,48.13-6.33,78.42,49.33,47.6,87.07-20.18,24.71-58.51,24.95-79.89,1.61-28.77-31.41-10.61-82.4,31.52-88.57.26-.04.52-.07.78-.11-.26.03-.52.07-.78.11Z" />
      </g>
    </g>
    <line class="st1" x1="300.08" y1="285.15" x2="358.54" y2="343.62" />
  </g>
</svg>